<mxfile host="Electron" modified="2024-03-06T21:01:26.485Z" agent="Mozilla/5.0 (Windows NT 10.0; Win64; x64) AppleWebKit/537.36 (KHTML, like Gecko) draw.io/23.1.5 Chrome/120.0.6099.109 Electron/28.1.0 Safari/537.36" etag="L1QGn8ax7NOD6m3YU9GZ" version="23.1.5" type="device">
  <diagram name="Page-1" id="FOVUx2aNyCbF7gYrXVfD">
    <mxGraphModel dx="1434" dy="844" grid="1" gridSize="10" guides="1" tooltips="1" connect="1" arrows="1" fold="1" page="1" pageScale="1" pageWidth="850" pageHeight="1100" math="0" shadow="0">
      <root>
        <mxCell id="0" />
        <mxCell id="1" parent="0" />
        <mxCell id="czllqNKwi16Nrpdp5ATz-4" style="edgeStyle=orthogonalEdgeStyle;rounded=0;orthogonalLoop=1;jettySize=auto;html=1;exitX=1;exitY=0.5;exitDx=0;exitDy=0;entryX=0;entryY=0.5;entryDx=0;entryDy=0;" parent="1" source="czllqNKwi16Nrpdp5ATz-1" target="czllqNKwi16Nrpdp5ATz-3" edge="1">
          <mxGeometry relative="1" as="geometry" />
        </mxCell>
        <mxCell id="czllqNKwi16Nrpdp5ATz-5" value="Start" style="edgeLabel;html=1;align=center;verticalAlign=middle;resizable=0;points=[];" parent="czllqNKwi16Nrpdp5ATz-4" vertex="1" connectable="0">
          <mxGeometry x="-0.1843" y="1" relative="1" as="geometry">
            <mxPoint as="offset" />
          </mxGeometry>
        </mxCell>
        <mxCell id="czllqNKwi16Nrpdp5ATz-1" value="" style="ellipse;whiteSpace=wrap;html=1;aspect=fixed;fillColor=#008a00;fontColor=#ffffff;strokeColor=#005700;" parent="1" vertex="1">
          <mxGeometry x="60" y="210" width="20" height="20" as="geometry" />
        </mxCell>
        <mxCell id="czllqNKwi16Nrpdp5ATz-3" value="q0 (The Menu&lt;br&gt;Selection)" style="ellipse;whiteSpace=wrap;html=1;" parent="1" vertex="1">
          <mxGeometry x="210" y="180" width="120" height="80" as="geometry" />
        </mxCell>
        <mxCell id="czllqNKwi16Nrpdp5ATz-6" value="q1 (Coffee Selected)" style="ellipse;whiteSpace=wrap;html=1;" parent="1" vertex="1">
          <mxGeometry x="420" width="120" height="80" as="geometry" />
        </mxCell>
        <mxCell id="czllqNKwi16Nrpdp5ATz-7" value="q2 (Tea Selected)" style="ellipse;whiteSpace=wrap;html=1;" parent="1" vertex="1">
          <mxGeometry x="420" y="110" width="120" height="80" as="geometry" />
        </mxCell>
        <mxCell id="czllqNKwi16Nrpdp5ATz-8" value="q3 (Cappucino Selected)" style="ellipse;whiteSpace=wrap;html=1;" parent="1" vertex="1">
          <mxGeometry x="420" y="260" width="120" height="80" as="geometry" />
        </mxCell>
        <mxCell id="czllqNKwi16Nrpdp5ATz-9" value="q4&lt;br&gt;&amp;nbsp;(Hot Chocolate Selected)" style="ellipse;whiteSpace=wrap;html=1;" parent="1" vertex="1">
          <mxGeometry x="420" y="360" width="120" height="80" as="geometry" />
        </mxCell>
        <mxCell id="czllqNKwi16Nrpdp5ATz-10" value="" style="ellipse;whiteSpace=wrap;html=1;fillColor=#a20025;fontColor=#ffffff;strokeColor=#6F0000;" parent="1" vertex="1">
          <mxGeometry x="630" y="171.66000000000003" width="145" height="96.67" as="geometry" />
        </mxCell>
        <mxCell id="czllqNKwi16Nrpdp5ATz-11" value="q5(Drink Received)" style="ellipse;whiteSpace=wrap;html=1;" parent="1" vertex="1">
          <mxGeometry x="642.5" y="179.99" width="120" height="80" as="geometry" />
        </mxCell>
        <mxCell id="czllqNKwi16Nrpdp5ATz-13" value="" style="endArrow=classic;html=1;rounded=0;exitX=0.5;exitY=0;exitDx=0;exitDy=0;entryX=0;entryY=0.5;entryDx=0;entryDy=0;" parent="1" source="czllqNKwi16Nrpdp5ATz-3" target="czllqNKwi16Nrpdp5ATz-6" edge="1">
          <mxGeometry width="50" height="50" relative="1" as="geometry">
            <mxPoint x="450" y="210" as="sourcePoint" />
            <mxPoint x="500" y="160" as="targetPoint" />
          </mxGeometry>
        </mxCell>
        <mxCell id="czllqNKwi16Nrpdp5ATz-21" value="C" style="edgeLabel;html=1;align=center;verticalAlign=middle;resizable=0;points=[];" parent="czllqNKwi16Nrpdp5ATz-13" vertex="1" connectable="0">
          <mxGeometry x="-0.1659" y="2" relative="1" as="geometry">
            <mxPoint as="offset" />
          </mxGeometry>
        </mxCell>
        <mxCell id="czllqNKwi16Nrpdp5ATz-14" value="" style="endArrow=classic;html=1;rounded=0;exitX=1;exitY=0;exitDx=0;exitDy=0;entryX=0;entryY=0.5;entryDx=0;entryDy=0;" parent="1" source="czllqNKwi16Nrpdp5ATz-3" target="czllqNKwi16Nrpdp5ATz-7" edge="1">
          <mxGeometry width="50" height="50" relative="1" as="geometry">
            <mxPoint x="450" y="210" as="sourcePoint" />
            <mxPoint x="500" y="160" as="targetPoint" />
          </mxGeometry>
        </mxCell>
        <mxCell id="czllqNKwi16Nrpdp5ATz-22" value="T" style="edgeLabel;html=1;align=center;verticalAlign=middle;resizable=0;points=[];" parent="czllqNKwi16Nrpdp5ATz-14" vertex="1" connectable="0">
          <mxGeometry x="-0.1187" y="-1" relative="1" as="geometry">
            <mxPoint as="offset" />
          </mxGeometry>
        </mxCell>
        <mxCell id="czllqNKwi16Nrpdp5ATz-15" value="" style="endArrow=classic;html=1;rounded=0;exitX=1;exitY=1;exitDx=0;exitDy=0;entryX=0;entryY=0.5;entryDx=0;entryDy=0;" parent="1" source="czllqNKwi16Nrpdp5ATz-3" target="czllqNKwi16Nrpdp5ATz-8" edge="1">
          <mxGeometry width="50" height="50" relative="1" as="geometry">
            <mxPoint x="450" y="210" as="sourcePoint" />
            <mxPoint x="500" y="160" as="targetPoint" />
          </mxGeometry>
        </mxCell>
        <mxCell id="czllqNKwi16Nrpdp5ATz-23" value="A" style="edgeLabel;html=1;align=center;verticalAlign=middle;resizable=0;points=[];" parent="czllqNKwi16Nrpdp5ATz-15" vertex="1" connectable="0">
          <mxGeometry x="-0.0677" y="-2" relative="1" as="geometry">
            <mxPoint as="offset" />
          </mxGeometry>
        </mxCell>
        <mxCell id="czllqNKwi16Nrpdp5ATz-16" value="" style="endArrow=classic;html=1;rounded=0;exitX=0.5;exitY=1;exitDx=0;exitDy=0;entryX=0;entryY=0.5;entryDx=0;entryDy=0;" parent="1" source="czllqNKwi16Nrpdp5ATz-3" target="czllqNKwi16Nrpdp5ATz-9" edge="1">
          <mxGeometry width="50" height="50" relative="1" as="geometry">
            <mxPoint x="450" y="210" as="sourcePoint" />
            <mxPoint x="500" y="160" as="targetPoint" />
          </mxGeometry>
        </mxCell>
        <mxCell id="czllqNKwi16Nrpdp5ATz-24" value="H" style="edgeLabel;html=1;align=center;verticalAlign=middle;resizable=0;points=[];" parent="czllqNKwi16Nrpdp5ATz-16" vertex="1" connectable="0">
          <mxGeometry x="0.165" y="1" relative="1" as="geometry">
            <mxPoint as="offset" />
          </mxGeometry>
        </mxCell>
        <mxCell id="czllqNKwi16Nrpdp5ATz-17" value="" style="endArrow=classic;html=1;rounded=0;entryX=0.5;entryY=0;entryDx=0;entryDy=0;exitX=1;exitY=0.5;exitDx=0;exitDy=0;" parent="1" source="czllqNKwi16Nrpdp5ATz-6" target="czllqNKwi16Nrpdp5ATz-10" edge="1">
          <mxGeometry width="50" height="50" relative="1" as="geometry">
            <mxPoint x="450" y="210" as="sourcePoint" />
            <mxPoint x="500" y="160" as="targetPoint" />
          </mxGeometry>
        </mxCell>
        <mxCell id="czllqNKwi16Nrpdp5ATz-25" value="OK" style="edgeLabel;html=1;align=center;verticalAlign=middle;resizable=0;points=[];" parent="czllqNKwi16Nrpdp5ATz-17" vertex="1" connectable="0">
          <mxGeometry x="-0.1955" y="1" relative="1" as="geometry">
            <mxPoint as="offset" />
          </mxGeometry>
        </mxCell>
        <mxCell id="czllqNKwi16Nrpdp5ATz-18" value="" style="endArrow=classic;html=1;rounded=0;entryX=0;entryY=0;entryDx=0;entryDy=0;exitX=1;exitY=0.5;exitDx=0;exitDy=0;" parent="1" source="czllqNKwi16Nrpdp5ATz-7" target="czllqNKwi16Nrpdp5ATz-10" edge="1">
          <mxGeometry width="50" height="50" relative="1" as="geometry">
            <mxPoint x="450" y="210" as="sourcePoint" />
            <mxPoint x="500" y="160" as="targetPoint" />
          </mxGeometry>
        </mxCell>
        <mxCell id="czllqNKwi16Nrpdp5ATz-26" value="OK" style="edgeLabel;html=1;align=center;verticalAlign=middle;resizable=0;points=[];" parent="czllqNKwi16Nrpdp5ATz-18" vertex="1" connectable="0">
          <mxGeometry x="-0.3253" y="3" relative="1" as="geometry">
            <mxPoint x="4" y="8" as="offset" />
          </mxGeometry>
        </mxCell>
        <mxCell id="czllqNKwi16Nrpdp5ATz-19" value="" style="endArrow=classic;html=1;rounded=0;entryX=0;entryY=1;entryDx=0;entryDy=0;exitX=1;exitY=0.5;exitDx=0;exitDy=0;" parent="1" source="czllqNKwi16Nrpdp5ATz-8" target="czllqNKwi16Nrpdp5ATz-10" edge="1">
          <mxGeometry width="50" height="50" relative="1" as="geometry">
            <mxPoint x="450" y="210" as="sourcePoint" />
            <mxPoint x="500" y="160" as="targetPoint" />
          </mxGeometry>
        </mxCell>
        <mxCell id="czllqNKwi16Nrpdp5ATz-27" value="OK" style="edgeLabel;html=1;align=center;verticalAlign=middle;resizable=0;points=[];" parent="czllqNKwi16Nrpdp5ATz-19" vertex="1" connectable="0">
          <mxGeometry x="-0.2216" y="-3" relative="1" as="geometry">
            <mxPoint as="offset" />
          </mxGeometry>
        </mxCell>
        <mxCell id="czllqNKwi16Nrpdp5ATz-20" value="" style="endArrow=classic;html=1;rounded=0;entryX=0.5;entryY=1;entryDx=0;entryDy=0;exitX=1;exitY=0.5;exitDx=0;exitDy=0;" parent="1" source="czllqNKwi16Nrpdp5ATz-9" target="czllqNKwi16Nrpdp5ATz-10" edge="1">
          <mxGeometry width="50" height="50" relative="1" as="geometry">
            <mxPoint x="450" y="210" as="sourcePoint" />
            <mxPoint x="500" y="160" as="targetPoint" />
          </mxGeometry>
        </mxCell>
        <mxCell id="czllqNKwi16Nrpdp5ATz-28" value="OK" style="edgeLabel;html=1;align=center;verticalAlign=middle;resizable=0;points=[];" parent="czllqNKwi16Nrpdp5ATz-20" vertex="1" connectable="0">
          <mxGeometry x="-0.1606" y="-1" relative="1" as="geometry">
            <mxPoint as="offset" />
          </mxGeometry>
        </mxCell>
        <mxCell id="czllqNKwi16Nrpdp5ATz-30" value="" style="curved=1;endArrow=classic;html=1;rounded=0;exitX=0.375;exitY=0.983;exitDx=0;exitDy=0;exitPerimeter=0;entryX=0.069;entryY=0.732;entryDx=0;entryDy=0;entryPerimeter=0;" parent="1" source="czllqNKwi16Nrpdp5ATz-3" target="czllqNKwi16Nrpdp5ATz-3" edge="1">
          <mxGeometry width="50" height="50" relative="1" as="geometry">
            <mxPoint x="160" y="340" as="sourcePoint" />
            <mxPoint x="210" y="290" as="targetPoint" />
            <Array as="points">
              <mxPoint x="260" y="340" />
              <mxPoint x="170" y="340" />
              <mxPoint x="140" y="310" />
              <mxPoint x="160" y="270" />
            </Array>
          </mxGeometry>
        </mxCell>
        <mxCell id="czllqNKwi16Nrpdp5ATz-31" value="incorrect choice" style="edgeLabel;html=1;align=center;verticalAlign=middle;resizable=0;points=[];" parent="czllqNKwi16Nrpdp5ATz-30" vertex="1" connectable="0">
          <mxGeometry x="0.0292" y="-5" relative="1" as="geometry">
            <mxPoint as="offset" />
          </mxGeometry>
        </mxCell>
        <mxCell id="xVQ4KPOoB2Tv7BNqOoNF-2" value="" style="shape=table;startSize=0;container=1;collapsible=0;childLayout=tableLayout;fontSize=16;" parent="1" vertex="1">
          <mxGeometry x="18" y="470" width="813.1500000000001" height="550" as="geometry" />
        </mxCell>
        <mxCell id="xVQ4KPOoB2Tv7BNqOoNF-3" value="" style="shape=tableRow;horizontal=0;startSize=0;swimlaneHead=0;swimlaneBody=0;strokeColor=inherit;top=0;left=0;bottom=0;right=0;collapsible=0;dropTarget=0;fillColor=none;points=[[0,0.5],[1,0.5]];portConstraint=eastwest;fontSize=16;" parent="xVQ4KPOoB2Tv7BNqOoNF-2" vertex="1">
          <mxGeometry width="813.1500000000001" height="78" as="geometry" />
        </mxCell>
        <mxCell id="xVQ4KPOoB2Tv7BNqOoNF-4" value="States(Q) (Down) /&lt;br&gt;Inputs (Right)" style="shape=partialRectangle;html=1;whiteSpace=wrap;connectable=0;strokeColor=inherit;overflow=hidden;fillColor=none;top=0;left=0;bottom=0;right=0;pointerEvents=1;fontSize=16;" parent="xVQ4KPOoB2Tv7BNqOoNF-3" vertex="1">
          <mxGeometry width="135" height="78" as="geometry">
            <mxRectangle width="135" height="78" as="alternateBounds" />
          </mxGeometry>
        </mxCell>
        <mxCell id="xVQ4KPOoB2Tv7BNqOoNF-5" value="C" style="shape=partialRectangle;html=1;whiteSpace=wrap;connectable=0;strokeColor=inherit;overflow=hidden;fillColor=none;top=0;left=0;bottom=0;right=0;pointerEvents=1;fontSize=16;" parent="xVQ4KPOoB2Tv7BNqOoNF-3" vertex="1">
          <mxGeometry x="135" width="138" height="78" as="geometry">
            <mxRectangle width="138" height="78" as="alternateBounds" />
          </mxGeometry>
        </mxCell>
        <mxCell id="xVQ4KPOoB2Tv7BNqOoNF-6" value="T" style="shape=partialRectangle;html=1;whiteSpace=wrap;connectable=0;strokeColor=inherit;overflow=hidden;fillColor=none;top=0;left=0;bottom=0;right=0;pointerEvents=1;fontSize=16;" parent="xVQ4KPOoB2Tv7BNqOoNF-3" vertex="1">
          <mxGeometry x="273" width="135" height="78" as="geometry">
            <mxRectangle width="135" height="78" as="alternateBounds" />
          </mxGeometry>
        </mxCell>
        <mxCell id="xVQ4KPOoB2Tv7BNqOoNF-38" value="A" style="shape=partialRectangle;html=1;whiteSpace=wrap;connectable=0;strokeColor=inherit;overflow=hidden;fillColor=none;top=0;left=0;bottom=0;right=0;pointerEvents=1;fontSize=16;" parent="xVQ4KPOoB2Tv7BNqOoNF-3" vertex="1">
          <mxGeometry x="408" width="134" height="78" as="geometry">
            <mxRectangle width="134" height="78" as="alternateBounds" />
          </mxGeometry>
        </mxCell>
        <mxCell id="xVQ4KPOoB2Tv7BNqOoNF-31" value="H" style="shape=partialRectangle;html=1;whiteSpace=wrap;connectable=0;strokeColor=inherit;overflow=hidden;fillColor=none;top=0;left=0;bottom=0;right=0;pointerEvents=1;fontSize=16;" parent="xVQ4KPOoB2Tv7BNqOoNF-3" vertex="1">
          <mxGeometry x="542" width="135" height="78" as="geometry">
            <mxRectangle width="135" height="78" as="alternateBounds" />
          </mxGeometry>
        </mxCell>
        <mxCell id="xVQ4KPOoB2Tv7BNqOoNF-45" value="OK" style="shape=partialRectangle;html=1;whiteSpace=wrap;connectable=0;strokeColor=inherit;overflow=hidden;fillColor=none;top=0;left=0;bottom=0;right=0;pointerEvents=1;fontSize=16;" parent="xVQ4KPOoB2Tv7BNqOoNF-3" vertex="1">
          <mxGeometry x="677" width="136" height="78" as="geometry">
            <mxRectangle width="136" height="78" as="alternateBounds" />
          </mxGeometry>
        </mxCell>
        <mxCell id="xVQ4KPOoB2Tv7BNqOoNF-7" value="" style="shape=tableRow;horizontal=0;startSize=0;swimlaneHead=0;swimlaneBody=0;strokeColor=inherit;top=0;left=0;bottom=0;right=0;collapsible=0;dropTarget=0;fillColor=none;points=[[0,0.5],[1,0.5]];portConstraint=eastwest;fontSize=16;" parent="xVQ4KPOoB2Tv7BNqOoNF-2" vertex="1">
          <mxGeometry y="78" width="813.1500000000001" height="81" as="geometry" />
        </mxCell>
        <mxCell id="xVQ4KPOoB2Tv7BNqOoNF-8" value="q0" style="shape=partialRectangle;html=1;whiteSpace=wrap;connectable=0;strokeColor=inherit;overflow=hidden;fillColor=none;top=0;left=0;bottom=0;right=0;pointerEvents=1;fontSize=16;" parent="xVQ4KPOoB2Tv7BNqOoNF-7" vertex="1">
          <mxGeometry width="135" height="81" as="geometry">
            <mxRectangle width="135" height="81" as="alternateBounds" />
          </mxGeometry>
        </mxCell>
        <mxCell id="xVQ4KPOoB2Tv7BNqOoNF-9" value="q1" style="shape=partialRectangle;html=1;whiteSpace=wrap;connectable=0;strokeColor=inherit;overflow=hidden;fillColor=none;top=0;left=0;bottom=0;right=0;pointerEvents=1;fontSize=16;" parent="xVQ4KPOoB2Tv7BNqOoNF-7" vertex="1">
          <mxGeometry x="135" width="138" height="81" as="geometry">
            <mxRectangle width="138" height="81" as="alternateBounds" />
          </mxGeometry>
        </mxCell>
        <mxCell id="xVQ4KPOoB2Tv7BNqOoNF-10" value="q2" style="shape=partialRectangle;html=1;whiteSpace=wrap;connectable=0;strokeColor=inherit;overflow=hidden;fillColor=none;top=0;left=0;bottom=0;right=0;pointerEvents=1;fontSize=16;" parent="xVQ4KPOoB2Tv7BNqOoNF-7" vertex="1">
          <mxGeometry x="273" width="135" height="81" as="geometry">
            <mxRectangle width="135" height="81" as="alternateBounds" />
          </mxGeometry>
        </mxCell>
        <mxCell id="xVQ4KPOoB2Tv7BNqOoNF-39" value="q3" style="shape=partialRectangle;html=1;whiteSpace=wrap;connectable=0;strokeColor=inherit;overflow=hidden;fillColor=none;top=0;left=0;bottom=0;right=0;pointerEvents=1;fontSize=16;" parent="xVQ4KPOoB2Tv7BNqOoNF-7" vertex="1">
          <mxGeometry x="408" width="134" height="81" as="geometry">
            <mxRectangle width="134" height="81" as="alternateBounds" />
          </mxGeometry>
        </mxCell>
        <mxCell id="xVQ4KPOoB2Tv7BNqOoNF-32" value="q4" style="shape=partialRectangle;html=1;whiteSpace=wrap;connectable=0;strokeColor=inherit;overflow=hidden;fillColor=none;top=0;left=0;bottom=0;right=0;pointerEvents=1;fontSize=16;" parent="xVQ4KPOoB2Tv7BNqOoNF-7" vertex="1">
          <mxGeometry x="542" width="135" height="81" as="geometry">
            <mxRectangle width="135" height="81" as="alternateBounds" />
          </mxGeometry>
        </mxCell>
        <mxCell id="xVQ4KPOoB2Tv7BNqOoNF-46" value="-" style="shape=partialRectangle;html=1;whiteSpace=wrap;connectable=0;strokeColor=inherit;overflow=hidden;fillColor=none;top=0;left=0;bottom=0;right=0;pointerEvents=1;fontSize=16;" parent="xVQ4KPOoB2Tv7BNqOoNF-7" vertex="1">
          <mxGeometry x="677" width="136" height="81" as="geometry">
            <mxRectangle width="136" height="81" as="alternateBounds" />
          </mxGeometry>
        </mxCell>
        <mxCell id="xVQ4KPOoB2Tv7BNqOoNF-11" value="" style="shape=tableRow;horizontal=0;startSize=0;swimlaneHead=0;swimlaneBody=0;strokeColor=inherit;top=0;left=0;bottom=0;right=0;collapsible=0;dropTarget=0;fillColor=none;points=[[0,0.5],[1,0.5]];portConstraint=eastwest;fontSize=16;" parent="xVQ4KPOoB2Tv7BNqOoNF-2" vertex="1">
          <mxGeometry y="159" width="813.1500000000001" height="78" as="geometry" />
        </mxCell>
        <mxCell id="xVQ4KPOoB2Tv7BNqOoNF-12" value="q1" style="shape=partialRectangle;html=1;whiteSpace=wrap;connectable=0;strokeColor=inherit;overflow=hidden;fillColor=none;top=0;left=0;bottom=0;right=0;pointerEvents=1;fontSize=16;" parent="xVQ4KPOoB2Tv7BNqOoNF-11" vertex="1">
          <mxGeometry width="135" height="78" as="geometry">
            <mxRectangle width="135" height="78" as="alternateBounds" />
          </mxGeometry>
        </mxCell>
        <mxCell id="xVQ4KPOoB2Tv7BNqOoNF-13" value="-" style="shape=partialRectangle;html=1;whiteSpace=wrap;connectable=0;strokeColor=inherit;overflow=hidden;fillColor=none;top=0;left=0;bottom=0;right=0;pointerEvents=1;fontSize=16;" parent="xVQ4KPOoB2Tv7BNqOoNF-11" vertex="1">
          <mxGeometry x="135" width="138" height="78" as="geometry">
            <mxRectangle width="138" height="78" as="alternateBounds" />
          </mxGeometry>
        </mxCell>
        <mxCell id="xVQ4KPOoB2Tv7BNqOoNF-14" value="-" style="shape=partialRectangle;html=1;whiteSpace=wrap;connectable=0;strokeColor=inherit;overflow=hidden;fillColor=none;top=0;left=0;bottom=0;right=0;pointerEvents=1;fontSize=16;" parent="xVQ4KPOoB2Tv7BNqOoNF-11" vertex="1">
          <mxGeometry x="273" width="135" height="78" as="geometry">
            <mxRectangle width="135" height="78" as="alternateBounds" />
          </mxGeometry>
        </mxCell>
        <mxCell id="xVQ4KPOoB2Tv7BNqOoNF-40" value="-" style="shape=partialRectangle;html=1;whiteSpace=wrap;connectable=0;strokeColor=inherit;overflow=hidden;fillColor=none;top=0;left=0;bottom=0;right=0;pointerEvents=1;fontSize=16;" parent="xVQ4KPOoB2Tv7BNqOoNF-11" vertex="1">
          <mxGeometry x="408" width="134" height="78" as="geometry">
            <mxRectangle width="134" height="78" as="alternateBounds" />
          </mxGeometry>
        </mxCell>
        <mxCell id="xVQ4KPOoB2Tv7BNqOoNF-33" value="-" style="shape=partialRectangle;html=1;whiteSpace=wrap;connectable=0;strokeColor=inherit;overflow=hidden;fillColor=none;top=0;left=0;bottom=0;right=0;pointerEvents=1;fontSize=16;" parent="xVQ4KPOoB2Tv7BNqOoNF-11" vertex="1">
          <mxGeometry x="542" width="135" height="78" as="geometry">
            <mxRectangle width="135" height="78" as="alternateBounds" />
          </mxGeometry>
        </mxCell>
        <mxCell id="xVQ4KPOoB2Tv7BNqOoNF-47" value="q5" style="shape=partialRectangle;html=1;whiteSpace=wrap;connectable=0;strokeColor=inherit;overflow=hidden;fillColor=none;top=0;left=0;bottom=0;right=0;pointerEvents=1;fontSize=16;" parent="xVQ4KPOoB2Tv7BNqOoNF-11" vertex="1">
          <mxGeometry x="677" width="136" height="78" as="geometry">
            <mxRectangle width="136" height="78" as="alternateBounds" />
          </mxGeometry>
        </mxCell>
        <mxCell id="xVQ4KPOoB2Tv7BNqOoNF-19" style="shape=tableRow;horizontal=0;startSize=0;swimlaneHead=0;swimlaneBody=0;strokeColor=inherit;top=0;left=0;bottom=0;right=0;collapsible=0;dropTarget=0;fillColor=none;points=[[0,0.5],[1,0.5]];portConstraint=eastwest;fontSize=16;" parent="xVQ4KPOoB2Tv7BNqOoNF-2" vertex="1">
          <mxGeometry y="237" width="813.1500000000001" height="78" as="geometry" />
        </mxCell>
        <mxCell id="xVQ4KPOoB2Tv7BNqOoNF-20" value="q2" style="shape=partialRectangle;html=1;whiteSpace=wrap;connectable=0;strokeColor=inherit;overflow=hidden;fillColor=none;top=0;left=0;bottom=0;right=0;pointerEvents=1;fontSize=16;" parent="xVQ4KPOoB2Tv7BNqOoNF-19" vertex="1">
          <mxGeometry width="135" height="78" as="geometry">
            <mxRectangle width="135" height="78" as="alternateBounds" />
          </mxGeometry>
        </mxCell>
        <mxCell id="xVQ4KPOoB2Tv7BNqOoNF-21" value="-" style="shape=partialRectangle;html=1;whiteSpace=wrap;connectable=0;strokeColor=inherit;overflow=hidden;fillColor=none;top=0;left=0;bottom=0;right=0;pointerEvents=1;fontSize=16;" parent="xVQ4KPOoB2Tv7BNqOoNF-19" vertex="1">
          <mxGeometry x="135" width="138" height="78" as="geometry">
            <mxRectangle width="138" height="78" as="alternateBounds" />
          </mxGeometry>
        </mxCell>
        <mxCell id="xVQ4KPOoB2Tv7BNqOoNF-22" value="-" style="shape=partialRectangle;html=1;whiteSpace=wrap;connectable=0;strokeColor=inherit;overflow=hidden;fillColor=none;top=0;left=0;bottom=0;right=0;pointerEvents=1;fontSize=16;" parent="xVQ4KPOoB2Tv7BNqOoNF-19" vertex="1">
          <mxGeometry x="273" width="135" height="78" as="geometry">
            <mxRectangle width="135" height="78" as="alternateBounds" />
          </mxGeometry>
        </mxCell>
        <mxCell id="xVQ4KPOoB2Tv7BNqOoNF-41" value="-" style="shape=partialRectangle;html=1;whiteSpace=wrap;connectable=0;strokeColor=inherit;overflow=hidden;fillColor=none;top=0;left=0;bottom=0;right=0;pointerEvents=1;fontSize=16;" parent="xVQ4KPOoB2Tv7BNqOoNF-19" vertex="1">
          <mxGeometry x="408" width="134" height="78" as="geometry">
            <mxRectangle width="134" height="78" as="alternateBounds" />
          </mxGeometry>
        </mxCell>
        <mxCell id="xVQ4KPOoB2Tv7BNqOoNF-34" value="-" style="shape=partialRectangle;html=1;whiteSpace=wrap;connectable=0;strokeColor=inherit;overflow=hidden;fillColor=none;top=0;left=0;bottom=0;right=0;pointerEvents=1;fontSize=16;" parent="xVQ4KPOoB2Tv7BNqOoNF-19" vertex="1">
          <mxGeometry x="542" width="135" height="78" as="geometry">
            <mxRectangle width="135" height="78" as="alternateBounds" />
          </mxGeometry>
        </mxCell>
        <mxCell id="xVQ4KPOoB2Tv7BNqOoNF-48" value="q5" style="shape=partialRectangle;html=1;whiteSpace=wrap;connectable=0;strokeColor=inherit;overflow=hidden;fillColor=none;top=0;left=0;bottom=0;right=0;pointerEvents=1;fontSize=16;" parent="xVQ4KPOoB2Tv7BNqOoNF-19" vertex="1">
          <mxGeometry x="677" width="136" height="78" as="geometry">
            <mxRectangle width="136" height="78" as="alternateBounds" />
          </mxGeometry>
        </mxCell>
        <mxCell id="xVQ4KPOoB2Tv7BNqOoNF-15" style="shape=tableRow;horizontal=0;startSize=0;swimlaneHead=0;swimlaneBody=0;strokeColor=inherit;top=0;left=0;bottom=0;right=0;collapsible=0;dropTarget=0;fillColor=none;points=[[0,0.5],[1,0.5]];portConstraint=eastwest;fontSize=16;" parent="xVQ4KPOoB2Tv7BNqOoNF-2" vertex="1">
          <mxGeometry y="315" width="813.1500000000001" height="78" as="geometry" />
        </mxCell>
        <mxCell id="xVQ4KPOoB2Tv7BNqOoNF-16" value="q3" style="shape=partialRectangle;html=1;whiteSpace=wrap;connectable=0;strokeColor=inherit;overflow=hidden;fillColor=none;top=0;left=0;bottom=0;right=0;pointerEvents=1;fontSize=16;" parent="xVQ4KPOoB2Tv7BNqOoNF-15" vertex="1">
          <mxGeometry width="135" height="78" as="geometry">
            <mxRectangle width="135" height="78" as="alternateBounds" />
          </mxGeometry>
        </mxCell>
        <mxCell id="xVQ4KPOoB2Tv7BNqOoNF-17" value="-" style="shape=partialRectangle;html=1;whiteSpace=wrap;connectable=0;strokeColor=inherit;overflow=hidden;fillColor=none;top=0;left=0;bottom=0;right=0;pointerEvents=1;fontSize=16;" parent="xVQ4KPOoB2Tv7BNqOoNF-15" vertex="1">
          <mxGeometry x="135" width="138" height="78" as="geometry">
            <mxRectangle width="138" height="78" as="alternateBounds" />
          </mxGeometry>
        </mxCell>
        <mxCell id="xVQ4KPOoB2Tv7BNqOoNF-18" value="-" style="shape=partialRectangle;html=1;whiteSpace=wrap;connectable=0;strokeColor=inherit;overflow=hidden;fillColor=none;top=0;left=0;bottom=0;right=0;pointerEvents=1;fontSize=16;" parent="xVQ4KPOoB2Tv7BNqOoNF-15" vertex="1">
          <mxGeometry x="273" width="135" height="78" as="geometry">
            <mxRectangle width="135" height="78" as="alternateBounds" />
          </mxGeometry>
        </mxCell>
        <mxCell id="xVQ4KPOoB2Tv7BNqOoNF-42" value="-" style="shape=partialRectangle;html=1;whiteSpace=wrap;connectable=0;strokeColor=inherit;overflow=hidden;fillColor=none;top=0;left=0;bottom=0;right=0;pointerEvents=1;fontSize=16;" parent="xVQ4KPOoB2Tv7BNqOoNF-15" vertex="1">
          <mxGeometry x="408" width="134" height="78" as="geometry">
            <mxRectangle width="134" height="78" as="alternateBounds" />
          </mxGeometry>
        </mxCell>
        <mxCell id="xVQ4KPOoB2Tv7BNqOoNF-35" value="-" style="shape=partialRectangle;html=1;whiteSpace=wrap;connectable=0;strokeColor=inherit;overflow=hidden;fillColor=none;top=0;left=0;bottom=0;right=0;pointerEvents=1;fontSize=16;" parent="xVQ4KPOoB2Tv7BNqOoNF-15" vertex="1">
          <mxGeometry x="542" width="135" height="78" as="geometry">
            <mxRectangle width="135" height="78" as="alternateBounds" />
          </mxGeometry>
        </mxCell>
        <mxCell id="xVQ4KPOoB2Tv7BNqOoNF-49" value="q5" style="shape=partialRectangle;html=1;whiteSpace=wrap;connectable=0;strokeColor=inherit;overflow=hidden;fillColor=none;top=0;left=0;bottom=0;right=0;pointerEvents=1;fontSize=16;" parent="xVQ4KPOoB2Tv7BNqOoNF-15" vertex="1">
          <mxGeometry x="677" width="136" height="78" as="geometry">
            <mxRectangle width="136" height="78" as="alternateBounds" />
          </mxGeometry>
        </mxCell>
        <mxCell id="xVQ4KPOoB2Tv7BNqOoNF-27" style="shape=tableRow;horizontal=0;startSize=0;swimlaneHead=0;swimlaneBody=0;strokeColor=inherit;top=0;left=0;bottom=0;right=0;collapsible=0;dropTarget=0;fillColor=none;points=[[0,0.5],[1,0.5]];portConstraint=eastwest;fontSize=16;" parent="xVQ4KPOoB2Tv7BNqOoNF-2" vertex="1">
          <mxGeometry y="393" width="813.1500000000001" height="79" as="geometry" />
        </mxCell>
        <mxCell id="xVQ4KPOoB2Tv7BNqOoNF-28" value="q4" style="shape=partialRectangle;html=1;whiteSpace=wrap;connectable=0;strokeColor=inherit;overflow=hidden;fillColor=none;top=0;left=0;bottom=0;right=0;pointerEvents=1;fontSize=16;" parent="xVQ4KPOoB2Tv7BNqOoNF-27" vertex="1">
          <mxGeometry width="135" height="79" as="geometry">
            <mxRectangle width="135" height="79" as="alternateBounds" />
          </mxGeometry>
        </mxCell>
        <mxCell id="xVQ4KPOoB2Tv7BNqOoNF-29" value="-" style="shape=partialRectangle;html=1;whiteSpace=wrap;connectable=0;strokeColor=inherit;overflow=hidden;fillColor=none;top=0;left=0;bottom=0;right=0;pointerEvents=1;fontSize=16;" parent="xVQ4KPOoB2Tv7BNqOoNF-27" vertex="1">
          <mxGeometry x="135" width="138" height="79" as="geometry">
            <mxRectangle width="138" height="79" as="alternateBounds" />
          </mxGeometry>
        </mxCell>
        <mxCell id="xVQ4KPOoB2Tv7BNqOoNF-30" value="-" style="shape=partialRectangle;html=1;whiteSpace=wrap;connectable=0;strokeColor=inherit;overflow=hidden;fillColor=none;top=0;left=0;bottom=0;right=0;pointerEvents=1;fontSize=16;" parent="xVQ4KPOoB2Tv7BNqOoNF-27" vertex="1">
          <mxGeometry x="273" width="135" height="79" as="geometry">
            <mxRectangle width="135" height="79" as="alternateBounds" />
          </mxGeometry>
        </mxCell>
        <mxCell id="xVQ4KPOoB2Tv7BNqOoNF-43" value="-" style="shape=partialRectangle;html=1;whiteSpace=wrap;connectable=0;strokeColor=inherit;overflow=hidden;fillColor=none;top=0;left=0;bottom=0;right=0;pointerEvents=1;fontSize=16;" parent="xVQ4KPOoB2Tv7BNqOoNF-27" vertex="1">
          <mxGeometry x="408" width="134" height="79" as="geometry">
            <mxRectangle width="134" height="79" as="alternateBounds" />
          </mxGeometry>
        </mxCell>
        <mxCell id="xVQ4KPOoB2Tv7BNqOoNF-36" value="-" style="shape=partialRectangle;html=1;whiteSpace=wrap;connectable=0;strokeColor=inherit;overflow=hidden;fillColor=none;top=0;left=0;bottom=0;right=0;pointerEvents=1;fontSize=16;" parent="xVQ4KPOoB2Tv7BNqOoNF-27" vertex="1">
          <mxGeometry x="542" width="135" height="79" as="geometry">
            <mxRectangle width="135" height="79" as="alternateBounds" />
          </mxGeometry>
        </mxCell>
        <mxCell id="xVQ4KPOoB2Tv7BNqOoNF-50" value="q5" style="shape=partialRectangle;html=1;whiteSpace=wrap;connectable=0;strokeColor=inherit;overflow=hidden;fillColor=none;top=0;left=0;bottom=0;right=0;pointerEvents=1;fontSize=16;" parent="xVQ4KPOoB2Tv7BNqOoNF-27" vertex="1">
          <mxGeometry x="677" width="136" height="79" as="geometry">
            <mxRectangle width="136" height="79" as="alternateBounds" />
          </mxGeometry>
        </mxCell>
        <mxCell id="xVQ4KPOoB2Tv7BNqOoNF-23" style="shape=tableRow;horizontal=0;startSize=0;swimlaneHead=0;swimlaneBody=0;strokeColor=inherit;top=0;left=0;bottom=0;right=0;collapsible=0;dropTarget=0;fillColor=none;points=[[0,0.5],[1,0.5]];portConstraint=eastwest;fontSize=16;" parent="xVQ4KPOoB2Tv7BNqOoNF-2" vertex="1">
          <mxGeometry y="472" width="813.1500000000001" height="78" as="geometry" />
        </mxCell>
        <mxCell id="xVQ4KPOoB2Tv7BNqOoNF-24" value="" style="shape=partialRectangle;html=1;whiteSpace=wrap;connectable=0;strokeColor=inherit;overflow=hidden;fillColor=none;top=0;left=0;bottom=0;right=0;pointerEvents=1;fontSize=16;" parent="xVQ4KPOoB2Tv7BNqOoNF-23" vertex="1">
          <mxGeometry width="135" height="78" as="geometry">
            <mxRectangle width="135" height="78" as="alternateBounds" />
          </mxGeometry>
        </mxCell>
        <mxCell id="xVQ4KPOoB2Tv7BNqOoNF-25" value="-" style="shape=partialRectangle;html=1;whiteSpace=wrap;connectable=0;strokeColor=inherit;overflow=hidden;fillColor=none;top=0;left=0;bottom=0;right=0;pointerEvents=1;fontSize=16;" parent="xVQ4KPOoB2Tv7BNqOoNF-23" vertex="1">
          <mxGeometry x="135" width="138" height="78" as="geometry">
            <mxRectangle width="138" height="78" as="alternateBounds" />
          </mxGeometry>
        </mxCell>
        <mxCell id="xVQ4KPOoB2Tv7BNqOoNF-26" value="-" style="shape=partialRectangle;html=1;whiteSpace=wrap;connectable=0;strokeColor=inherit;overflow=hidden;fillColor=none;top=0;left=0;bottom=0;right=0;pointerEvents=1;fontSize=16;" parent="xVQ4KPOoB2Tv7BNqOoNF-23" vertex="1">
          <mxGeometry x="273" width="135" height="78" as="geometry">
            <mxRectangle width="135" height="78" as="alternateBounds" />
          </mxGeometry>
        </mxCell>
        <mxCell id="xVQ4KPOoB2Tv7BNqOoNF-44" value="-" style="shape=partialRectangle;html=1;whiteSpace=wrap;connectable=0;strokeColor=inherit;overflow=hidden;fillColor=none;top=0;left=0;bottom=0;right=0;pointerEvents=1;fontSize=16;" parent="xVQ4KPOoB2Tv7BNqOoNF-23" vertex="1">
          <mxGeometry x="408" width="134" height="78" as="geometry">
            <mxRectangle width="134" height="78" as="alternateBounds" />
          </mxGeometry>
        </mxCell>
        <mxCell id="xVQ4KPOoB2Tv7BNqOoNF-37" value="-" style="shape=partialRectangle;html=1;whiteSpace=wrap;connectable=0;strokeColor=inherit;overflow=hidden;fillColor=none;top=0;left=0;bottom=0;right=0;pointerEvents=1;fontSize=16;" parent="xVQ4KPOoB2Tv7BNqOoNF-23" vertex="1">
          <mxGeometry x="542" width="135" height="78" as="geometry">
            <mxRectangle width="135" height="78" as="alternateBounds" />
          </mxGeometry>
        </mxCell>
        <mxCell id="xVQ4KPOoB2Tv7BNqOoNF-51" value="-" style="shape=partialRectangle;html=1;whiteSpace=wrap;connectable=0;strokeColor=inherit;overflow=hidden;fillColor=none;top=0;left=0;bottom=0;right=0;pointerEvents=1;fontSize=16;" parent="xVQ4KPOoB2Tv7BNqOoNF-23" vertex="1">
          <mxGeometry x="677" width="136" height="78" as="geometry">
            <mxRectangle width="136" height="78" as="alternateBounds" />
          </mxGeometry>
        </mxCell>
        <mxCell id="xVQ4KPOoB2Tv7BNqOoNF-55" value="q5" style="ellipse;whiteSpace=wrap;html=1;" parent="1" vertex="1">
          <mxGeometry x="38" y="953.3299999999999" width="85" height="56.67" as="geometry" />
        </mxCell>
        <mxCell id="xVQ4KPOoB2Tv7BNqOoNF-58" value="" style="endArrow=classic;html=1;rounded=0;exitX=0;exitY=0.5;exitDx=0;exitDy=0;entryX=0;entryY=0.5;entryDx=0;entryDy=0;" parent="1" source="xVQ4KPOoB2Tv7BNqOoNF-7" edge="1">
          <mxGeometry width="50" height="50" relative="1" as="geometry">
            <mxPoint x="178" y="630" as="sourcePoint" />
            <mxPoint x="68" y="588" as="targetPoint" />
          </mxGeometry>
        </mxCell>
      </root>
    </mxGraphModel>
  </diagram>
</mxfile>
